<svg width="29" height="29" viewBox="0 0 29 29" fill="none" xmlns="http://www.w3.org/2000/svg">
<path d="M8.87322 10.7282C9.21745 7.6302 11.8361 5.28644 14.9531 5.28644V5.28644C18.0702 5.28644 20.6888 7.6302 21.033 10.7282L21.3088 13.2098C21.4502 14.4829 21.8646 15.7105 22.5236 16.8088L23.1566 17.8638C23.4386 18.3338 23.5796 18.5688 23.6324 18.7513C23.8601 19.5385 23.3956 20.3589 22.6035 20.5686C22.4198 20.6172 22.1458 20.6172 21.5976 20.6172H8.3086C7.76049 20.6172 7.48644 20.6172 7.30278 20.5686C6.51063 20.3589 6.04613 19.5385 6.27387 18.7513C6.32667 18.5688 6.46767 18.3338 6.74967 17.8638L7.38265 16.8088C8.04167 15.7105 8.45604 14.4829 8.59749 13.2098L8.87322 10.7282Z" stroke="#9595A6" stroke-width="1.45"/>
<path d="M11.7799 21.0616C11.9671 21.8766 12.3795 22.5967 12.9532 23.1103C13.527 23.6239 14.2299 23.9023 14.9531 23.9023C15.6763 23.9023 16.3793 23.6239 16.953 23.1103C17.5267 22.5967 17.9392 21.8766 18.1263 21.0616" stroke="#9595A6" stroke-width="1.46007" stroke-linecap="round"/>
</svg>
