<svg width="14" height="14" viewBox="0 0 14 14" fill="none" xmlns="http://www.w3.org/2000/svg">
<circle cx="7" cy="7" r="7" fill="#DEE8DB" fill-opacity="0.66"/>
<path d="M5.72191 9.15286L4.1031 7.53405C4.01587 7.44682 3.89757 7.39782 3.77421 7.39782C3.65085 7.39782 3.53254 7.44682 3.44531 7.53405C3.35809 7.62128 3.30908 7.73958 3.30908 7.86294C3.30908 7.92402 3.32111 7.98451 3.34449 8.04094C3.36786 8.09737 3.40212 8.14864 3.44531 8.19183L5.39535 10.1419C5.57729 10.3238 5.87119 10.3238 6.05313 10.1419L10.9889 5.20614C11.0761 5.11891 11.1251 5.00061 11.1251 4.87725C11.1251 4.75389 11.0761 4.63558 10.9889 4.54836C10.9016 4.46113 10.7833 4.41212 10.66 4.41212C10.5366 4.41212 10.4183 4.46113 10.3311 4.54836L5.72191 9.15286Z" fill="#539B5B"/>
</svg>
