<svg width="14" height="14" viewBox="0 0 14 14" fill="none" xmlns="http://www.w3.org/2000/svg">
<circle cx="7" cy="7" r="7" fill="#FFF3F1"/>
<path fill-rule="evenodd" clip-rule="evenodd" d="M7.0156 4.64573C6.87387 4.82382 6.71485 5.09732 6.4867 5.4914L4.97133 8.10885C4.74237 8.50433 4.58375 8.77948 4.49958 8.99181C4.41612 9.20233 4.43056 9.2911 4.46408 9.34923C4.49759 9.40736 4.56718 9.46433 4.79118 9.49758C5.01712 9.53112 5.3347 9.53171 5.79169 9.53171H8.82242C9.2794 9.53171 9.59699 9.53112 9.82293 9.49758C10.0469 9.46433 10.1165 9.40736 10.15 9.34923C10.1835 9.2911 10.198 9.20233 10.1145 8.99181C10.0304 8.77948 9.87174 8.50433 9.64277 8.10885L8.12741 5.4914C7.89926 5.09732 7.74024 4.82382 7.59851 4.64573C7.45804 4.46923 7.3741 4.4375 7.30705 4.4375C7.24001 4.4375 7.15606 4.46923 7.0156 4.64573ZM6.67327 4.37329C6.84134 4.16211 7.03777 4 7.30705 4C7.57633 4 7.77277 4.16211 7.94083 4.3733C8.10522 4.57985 8.28015 4.88202 8.49649 5.25571L8.49649 5.25572L8.50603 5.27219L10.0214 7.88965L10.031 7.90616L10.031 7.90618C10.2481 8.28124 10.4237 8.58444 10.5212 8.83058C10.621 9.08215 10.6639 9.33391 10.529 9.56775C10.3942 9.80159 10.1548 9.8906 9.88717 9.93034C9.62525 9.96922 9.27488 9.96922 8.84147 9.96921H8.82242H5.79169H5.77264C5.33923 9.96922 4.98885 9.96922 4.72694 9.93034C4.45926 9.8906 4.21988 9.80159 4.08506 9.56775C3.95024 9.33391 3.99314 9.08215 4.09287 8.83058C4.19045 8.58443 4.366 8.28122 4.58316 7.90614L4.58316 7.90614L4.59271 7.88965L6.10808 5.27219L6.11762 5.25571C6.33396 4.88202 6.50889 4.57985 6.67327 4.37329ZM7.30723 5.99273C7.42804 5.99273 7.52598 6.09066 7.52598 6.21148V7.49835C7.52598 7.61916 7.42804 7.7171 7.30723 7.7171C7.18642 7.7171 7.08848 7.61916 7.08848 7.49835V6.21148C7.08848 6.09066 7.18642 5.99273 7.30723 5.99273ZM7.30741 8.78522C7.48509 8.78522 7.62913 8.64118 7.62913 8.4635C7.62913 8.28582 7.48509 8.14178 7.30741 8.14178C7.12973 8.14178 6.98569 8.28582 6.98569 8.4635C6.98569 8.64118 7.12973 8.78522 7.30741 8.78522Z" fill="#FF1010"/>
</svg>
