<svg width="20" height="16" viewBox="0 0 20 16" fill="none" xmlns="http://www.w3.org/2000/svg">
<path fill-rule="evenodd" clip-rule="evenodd" d="M15.0001 16V7H13.0001V0H20.0001L18.0001 5H20.0001L15.0001 16ZM13 9V16H1.99997C0.899975 16 -2.51321e-05 15.1 -2.51321e-05 14V11C-2.51321e-05 9.9 0.899975 9 1.99997 9H13ZM4.24984 11.75H2.74984V13.25H4.24984V11.75ZM10.9998 1.76572e-06V7H1.99976C0.899756 7 -0.000244141 6.1 -0.000244141 5V2C-0.000244141 0.900002 0.899756 1.76572e-06 1.99976 1.76572e-06H10.9998ZM4.24984 2.75003H2.74984V4.25003H4.24984V2.75003Z" fill="#FFB84B"/>
</svg>
